<svg width="24" height="24" viewBox="0 0 24 24" fill="none" xmlns="http://www.w3.org/2000/svg">
<rect width="24" height="24" fill="#F5C95D"/>
<path d="M6.74205 14.5624C6.7408 15.4136 7.44635 16.1095 8.31352 16.1111C9.1808 16.1127 9.88969 15.4193 9.89146 14.568L11.3368 14.5706C11.3336 16.2107 9.98141 17.5328 8.311 17.5301C6.641 17.5271 5.29311 16.2001 5.29577 14.5599L6.74205 14.5624ZM15.6817 10.634C17.6094 10.6375 19.1809 12.1863 19.1774 14.1109C19.174 16.0033 17.5971 17.5465 15.6694 17.5431C13.7416 17.5397 12.138 15.9905 12.1413 14.0974C12.1449 12.1735 13.7219 10.6305 15.6817 10.634ZM15.6909 12.0373C14.5346 12.0355 13.6006 12.9495 13.5984 14.0854C13.5965 15.1893 14.5273 16.1054 15.6837 16.1076C16.8402 16.1097 17.774 15.2284 17.7761 14.0928C17.7778 12.9883 16.8473 12.0714 15.6909 12.0373ZM8.33068 6.45685C10.2585 6.46027 11.8621 8.00878 11.8587 9.93285C11.8232 11.8258 10.246 13.3692 8.3184 13.366C6.39118 13.3626 4.81923 11.8134 4.82257 9.92034C4.82593 8.02786 6.40297 6.45355 8.33068 6.45685ZM8.3086 7.89138C7.15176 7.88941 6.21847 8.80316 6.21609 9.93845C6.21407 11.0746 7.14425 11.9918 8.30131 11.9939C9.45779 11.9958 10.3908 11.082 10.3928 9.94587C10.3945 8.81004 9.49691 7.89361 8.3086 7.89138ZM15.6891 6.46993C17.3597 6.473 18.7072 7.80018 18.7043 9.44111C18.7033 9.94521 18.573 10.4182 18.3473 10.8594C17.9625 10.5752 17.5453 10.3212 17.0956 10.1629C17.2241 9.94207 17.2897 9.69054 17.2902 9.4386C17.2918 8.5867 16.586 7.89163 15.7188 7.8899C14.8508 7.8884 14.1423 8.58101 14.1408 9.433C14.1404 9.68488 14.2047 9.93674 14.3329 10.158C13.8826 10.3147 13.4316 10.5355 13.0778 10.8501C12.8216 10.4079 12.7259 9.93423 12.7268 9.42951C12.6661 7.789 14.0184 6.46699 15.6891 6.46993Z" fill="black"/>
</svg>
