<svg width="24" height="24" viewBox="0 0 24 24" fill="none" xmlns="http://www.w3.org/2000/svg">
<rect width="24" height="24" fill="#FFEF46"/>
<path d="M12.1285 12.5266L12.9556 11.7276L14.4976 12.2323C15.507 12.5687 16.0117 13.1855 16.0117 14.0547C16.0117 14.7136 15.7593 15.1482 15.2547 15.7089L15.1005 15.8771L15.1565 15.4846C15.3808 14.0547 14.9603 13.4379 13.5724 12.9892L12.1285 12.5266ZM10.0537 7.63414L14.2593 9.036L13.3481 9.90517L11.1612 9.17619C10.4042 8.92385 10.1518 8.51731 10.0537 7.66217V7.63414ZM9.80135 14.7556L10.7546 13.8444L12.5491 14.4332C13.4883 14.7416 13.8107 15.1482 13.7126 16.1715L9.80135 14.7556ZM8.59577 10.6902C8.59577 10.4239 8.73595 10.1715 8.97427 9.96122C9.22661 10.3257 9.66118 10.6481 10.3481 10.8725L11.8341 11.3631L11.007 12.1622L9.54903 11.6855C8.87614 11.4612 8.59577 11.1248 8.59577 10.6902ZM12.9976 18.05C16.0817 16.0033 17.7359 14.6154 17.7359 12.9052C17.7359 11.7696 17.063 11.1388 15.5771 10.6481L14.4556 10.2696L17.5257 7.32572L16.9088 6.66684L15.9976 7.4659L11.6939 6.05002C10.3621 6.4846 8.67988 7.7603 8.67988 9.036C8.67988 9.17618 8.6939 9.31637 8.73595 9.47059C7.62847 10.1014 7.17988 10.6902 7.17988 11.4191C7.17988 12.1061 7.54436 12.793 8.70792 13.1715L9.63314 13.4799L6.43689 16.55L7.05371 17.2089L8.04904 16.2977L12.9976 18.05Z" fill="#02050A"/>
</svg>
