<svg width="24" height="24" viewBox="0 0 24 24" fill="none" xmlns="http://www.w3.org/2000/svg">
<rect width="24" height="24" fill="#191D20"/>
<path d="M18.5375 9.03837L12.8677 5.29285V7.38715L16.505 9.76819L16.0769 11.1323H12.8677V12.8677H16.0769L16.505 14.2318L12.8677 16.6128V18.7071L18.5375 14.9738L17.6105 12.0059L18.5375 9.03795V9.03837Z" fill="url(#paint0_linear_481_78)"/>
<path d="M7.93485 12.8677H11.1324V11.1323H7.92278L7.50671 9.76819L11.1324 7.38715V5.29285L5.46252 9.03837L6.38954 12.0063L5.46252 14.9738L11.1445 18.7071V16.6132L7.50712 14.2318L7.93485 12.8677Z" fill="url(#paint1_linear_481_78)"/>
<mask id="mask0_481_78" style="mask-type:alpha" maskUnits="userSpaceOnUse" x="5" y="5" width="14" height="14">
<path d="M18.5375 9.03837L12.8677 5.29285V7.38715L16.505 9.76819L16.0769 11.1323H12.8677V12.8677H16.0769L16.505 14.2318L12.8677 16.6128V18.7071L18.5375 14.9738L17.6105 12.0059L18.5375 9.03795V9.03837Z" fill="url(#paint2_linear_481_78)"/>
<path d="M7.93485 12.8677H11.1324V11.1323H7.92278L7.50671 9.76819L11.1324 7.38715V5.29285L5.46252 9.03837L6.38954 12.0063L5.46252 14.9738L11.1445 18.7071V16.6132L7.50712 14.2318L7.93485 12.8677Z" fill="url(#paint3_linear_481_78)"/>
</mask>
<g mask="url(#mask0_481_78)">
<path d="M5.46924 5.29285H18.4508V18.7071H5.46924V5.29285Z" fill="url(#paint4_linear_481_78)"/>
</g>
<defs>
<linearGradient id="paint0_linear_481_78" x1="16.7035" y1="19.6294" x2="12.8516" y2="3.83295" gradientUnits="userSpaceOnUse">
<stop stop-color="#0B46F9"/>
<stop offset="1" stop-color="#BBFBE0"/>
</linearGradient>
<linearGradient id="paint1_linear_481_78" x1="16.7036" y1="19.6294" x2="12.8517" y2="3.83295" gradientUnits="userSpaceOnUse">
<stop stop-color="#0B46F9"/>
<stop offset="1" stop-color="#BBFBE0"/>
</linearGradient>
<linearGradient id="paint2_linear_481_78" x1="16.7035" y1="19.6294" x2="12.8516" y2="3.83295" gradientUnits="userSpaceOnUse">
<stop stop-color="#0B46F9"/>
<stop offset="1" stop-color="#BBFBE0"/>
</linearGradient>
<linearGradient id="paint3_linear_481_78" x1="16.7036" y1="19.6294" x2="12.8517" y2="3.83295" gradientUnits="userSpaceOnUse">
<stop stop-color="#0B46F9"/>
<stop offset="1" stop-color="#BBFBE0"/>
</linearGradient>
<linearGradient id="paint4_linear_481_78" x1="6.30139" y1="8.31106" x2="12.9105" y2="13.2102" gradientUnits="userSpaceOnUse">
<stop offset="0.12" stop-color="#8952FF" stop-opacity="0.87"/>
<stop offset="1" stop-color="#DABDFF" stop-opacity="0"/>
</linearGradient>
</defs>
</svg>
