<svg width="24" height="24" viewBox="0 0 24 24" fill="none" xmlns="http://www.w3.org/2000/svg">
<rect width="24" height="24" fill="#3396FF"/>
<path d="M6.80806 8.78627C9.67552 6.03788 14.3246 6.03788 17.1921 8.78627L17.5372 9.11703C17.6805 9.25446 17.6805 9.47725 17.5372 9.61469L16.3566 10.7462C16.2849 10.8149 16.1687 10.8149 16.097 10.7462L15.6221 10.291C13.6217 8.37366 10.3784 8.37366 8.37797 10.291L7.86938 10.7785C7.79772 10.8472 7.68151 10.8472 7.6098 10.7785L6.42929 9.64696C6.28587 9.50952 6.28587 9.28674 6.42929 9.1493L6.80806 8.78627ZM19.6335 11.1264L20.6842 12.1334C20.8276 12.2708 20.8276 12.4936 20.6842 12.631L15.9466 17.1719C15.8033 17.3093 15.5708 17.3093 15.4274 17.1719L12.065 13.9491C12.0291 13.9148 11.971 13.9148 11.9352 13.9491L8.57281 17.1719C8.42944 17.3093 8.19696 17.3093 8.0536 17.1719L3.3159 12.631C3.17253 12.4935 3.17253 12.2708 3.3159 12.1333L4.36658 11.1263C4.50996 10.9889 4.74241 10.9889 4.88579 11.1263L8.24829 14.3491C8.2841 14.3835 8.34221 14.3835 8.37806 14.3491L11.7404 11.1263C11.8837 10.9889 12.1162 10.9889 12.2596 11.1263L15.6221 14.3491C15.6579 14.3835 15.716 14.3835 15.7519 14.3491L19.1143 11.1264C19.2577 10.9889 19.4901 10.9889 19.6335 11.1264Z" fill="white"/>
</svg>
