<svg width="24" height="24" viewBox="0 0 24 24" fill="none" xmlns="http://www.w3.org/2000/svg">
<rect width="24" height="24" fill="#0B0E13"/>
<mask id="mask0_480_1618" style="mask-type:luminance" maskUnits="userSpaceOnUse" x="3" y="3" width="18" height="18">
<path d="M20.5229 3.55206H3.47705V20.448H20.5229V3.55206Z" fill="white"/>
</mask>
<g mask="url(#mask0_480_1618)">
<path d="M5.11011 16.8411C5.82263 17.8331 6.7397 18.665 7.79654 19.2786C8.85339 19.8923 10.0296 20.2775 11.2466 20.4037C10.6193 19.4627 9.7125 18.5968 8.57724 17.9354C7.43858 17.2774 6.23855 16.9161 5.11011 16.8411Z" fill="url(#paint0_linear_480_1618)"/>
<path d="M10.1012 15.3103C7.91251 14.0387 5.54654 13.7148 3.85217 14.2876C4.01581 14.8296 4.23059 15.3512 4.49651 15.849C5.96927 15.8149 7.575 16.2138 9.07163 17.0831C10.5683 17.9524 11.7103 19.1491 12.4092 20.4446C12.9751 20.4275 13.5342 20.3559 14.0865 20.2298C13.7422 18.4775 12.2865 16.582 10.1012 15.3103Z" fill="url(#paint1_linear_480_1618)"/>
<path d="M20.523 10.1523C20.2434 9.0204 19.7423 7.95674 19.0434 7.02603C18.3445 6.09533 17.4649 5.31122 16.4592 4.72484C15.4535 4.13846 14.3387 3.76345 13.183 3.62026C12.0273 3.47708 10.8545 3.56572 9.73291 3.88277C11.6046 4.11118 13.6841 4.81348 15.7194 5.99987C17.7581 7.18286 19.3979 8.63858 20.523 10.1523Z" fill="url(#paint2_linear_480_1618)"/>
<path d="M17.8025 14.3012C16.8445 12.7091 15.2047 11.1852 13.1796 10.0125C11.158 8.8363 9.02041 8.1681 7.16581 8.12378C5.53282 8.08287 4.30892 8.55675 3.80777 9.42268C3.80436 9.4295 3.80095 9.43291 3.79754 9.43632C3.75322 9.59996 3.71231 9.76019 3.67822 9.92383C4.38051 9.64769 5.19531 9.49086 6.09874 9.47382C8.11016 9.43632 10.3602 10.0807 12.4398 11.2875C14.516 12.4944 16.1933 14.1308 17.1547 15.8967C17.5877 16.6911 17.857 17.4752 17.9627 18.2252C18.0854 18.1127 18.2081 18.0002 18.3275 17.8809C18.3309 17.874 18.3343 17.8706 18.3343 17.8638C18.8354 16.9979 18.6411 15.699 17.8025 14.3012Z" fill="url(#paint3_linear_480_1618)"/>
<path d="M11.6422 12.658C8.54663 10.858 5.12382 10.5784 3.48059 11.833C3.484 12.2251 3.51468 12.6171 3.56923 13.0058C4.05333 12.8592 4.55107 12.7671 5.05563 12.7296C6.89318 12.5898 8.92164 13.1046 10.7592 14.1717C12.6001 15.2422 14.049 16.749 14.84 18.4127C15.0582 18.8695 15.2252 19.3468 15.3377 19.8412C15.7025 19.698 16.0605 19.5309 16.4014 19.3366C16.6775 17.2911 14.7377 14.4581 11.6422 12.658Z" fill="url(#paint4_linear_480_1618)"/>
<path d="M19.3946 11.6386C18.4264 10.05 16.7695 8.52265 14.7343 7.33966C12.6956 6.15668 10.5512 5.47484 8.68979 5.42029C7.27157 5.37938 6.17041 5.72371 5.60107 6.37145C7.96705 5.96917 11.0864 6.64419 14.1138 8.39992C17.1377 10.1556 19.2719 12.5353 20.0935 14.7887C20.3765 13.9739 20.131 12.8489 19.3946 11.6386Z" fill="url(#paint5_linear_480_1618)"/>
</g>
<defs>
<linearGradient id="paint0_linear_480_1618" x1="14.9179" y1="7.03532" x2="7.08624" y2="20.4988" gradientUnits="userSpaceOnUse">
<stop offset="0.0001" stop-color="#C7F284"/>
<stop offset="1" stop-color="#00BEF0"/>
</linearGradient>
<linearGradient id="paint1_linear_480_1618" x1="14.9175" y1="7.03502" x2="7.08581" y2="20.4985" gradientUnits="userSpaceOnUse">
<stop offset="0.0001" stop-color="#C7F284"/>
<stop offset="1" stop-color="#00BEF0"/>
</linearGradient>
<linearGradient id="paint2_linear_480_1618" x1="15.0679" y1="7.12255" x2="7.23617" y2="20.586" gradientUnits="userSpaceOnUse">
<stop offset="0.0001" stop-color="#C7F284"/>
<stop offset="1" stop-color="#00BEF0"/>
</linearGradient>
<linearGradient id="paint3_linear_480_1618" x1="14.9158" y1="7.03407" x2="7.08409" y2="20.4975" gradientUnits="userSpaceOnUse">
<stop offset="0.0001" stop-color="#C7F284"/>
<stop offset="1" stop-color="#00BEF0"/>
</linearGradient>
<linearGradient id="paint4_linear_480_1618" x1="14.9166" y1="7.03453" x2="7.08493" y2="20.498" gradientUnits="userSpaceOnUse">
<stop offset="0.0001" stop-color="#C7F284"/>
<stop offset="1" stop-color="#00BEF0"/>
</linearGradient>
<linearGradient id="paint5_linear_480_1618" x1="14.9138" y1="7.03287" x2="7.08212" y2="20.4963" gradientUnits="userSpaceOnUse">
<stop offset="0.0001" stop-color="#C7F284"/>
<stop offset="1" stop-color="#00BEF0"/>
</linearGradient>
</defs>
</svg>
