<svg width="24" height="24" viewBox="0 0 24 24" fill="none" xmlns="http://www.w3.org/2000/svg">
<rect width="24" height="24" fill="#9786E4"/>
<g clip-path="url(#clip0_44_610)">
<path d="M5.7655 15.797C5.7655 17.222 6.49879 17.55 7.26141 17.55C8.87463 17.55 10.087 16.0841 10.8105 14.9256C10.7225 15.1819 10.6736 15.4382 10.6736 15.6842C10.6736 16.3609 11.0452 16.8427 11.7785 16.8427C12.7855 16.8427 13.861 15.92 14.4183 14.9256C14.3792 15.0692 14.3596 15.2024 14.3596 15.3254C14.3596 15.797 14.6138 16.0943 15.132 16.0943C16.7648 16.0943 18.4074 13.0701 18.4074 10.4252C18.4074 8.36459 17.4101 6.55005 14.9071 6.55005C10.5074 6.55005 5.7655 12.1679 5.7655 15.797ZM13.3917 10.1996C13.3917 9.68705 13.6654 9.32825 14.0663 9.32825C14.4574 9.32825 14.7312 9.68705 14.7312 10.1996C14.7312 10.7122 14.4574 11.0813 14.0663 11.0813C13.6654 11.0813 13.3917 10.7122 13.3917 10.1996ZM15.484 10.1996C15.484 9.68705 15.7578 9.32825 16.1586 9.32825C16.5497 9.32825 16.8235 9.68705 16.8235 10.1996C16.8235 10.7122 16.5497 11.0813 16.1586 11.0813C15.7578 11.0813 15.484 10.7122 15.484 10.1996Z" fill="#FEFDF8"/>
</g>
<defs>
<clipPath id="clip0_44_610">
<rect width="12.76" height="11" fill="white" transform="translate(5.70642 6.54993)"/>
</clipPath>
</defs>
</svg>
