<svg width="24" height="24" viewBox="0 0 24 24" fill="none" xmlns="http://www.w3.org/2000/svg">
<rect width="24" height="24" fill="#007CBF"/>
<path fill-rule="evenodd" clip-rule="evenodd" d="M14.6149 10.2643C14.2977 10.3359 13.9965 10.4952 13.7496 10.7418L8.70958 15.775C8.01379 16.4701 8.01378 17.5976 8.70958 18.2926C9.40525 18.9875 10.5333 18.9872 11.2291 18.2926L13.8942 15.6305C14.3928 15.7828 14.9169 15.8301 15.4313 15.7731L12.0699 19.1315C10.9103 20.2899 9.02941 20.2899 7.86974 19.1315C6.71008 17.9731 6.7101 16.0946 7.86974 14.9362L10.8092 11.9997L10.8072 11.9977L11.6471 11.1588L11.65 11.1608L12.9098 9.902C13.1447 9.66746 13.409 9.48001 13.691 9.34048L14.6149 10.2643ZM7.86974 4.8688C9.0294 3.7104 10.9103 3.7104 12.0699 4.8688L17.109 9.902C18.2687 11.0604 18.2687 12.9389 17.109 14.0973C15.9494 15.2557 14.0695 15.2555 12.9098 14.0973L12.1442 13.3327L12.984 12.4938L13.7496 13.2584C14.4454 13.9533 15.5734 13.9534 16.2692 13.2584C16.9649 12.5635 16.9647 11.4369 16.2692 10.7418L11.2291 5.70767C10.5333 5.01274 9.40535 5.01267 8.70958 5.70767C8.01409 6.40265 8.01406 7.5293 8.70958 8.22427L11.1432 10.6559L10.3033 11.4948L7.86974 9.06314C6.71039 7.9048 6.71042 6.02715 7.86974 4.8688Z" fill="white"/>
</svg>
