<svg width="208" height="88" viewBox="0 0 208 88" fill="none" xmlns="http://www.w3.org/2000/svg">
<rect x="0.5" y="0.499969" width="206.129" height="86.7614" rx="8.5" fill="#181728"/>
<rect x="0.5" y="0.499969" width="206.129" height="86.7614" rx="8.5" stroke="white"/>
<path d="M27.6708 70.7614V17H37.8086V70.7614H27.6708ZM14 70.7614V62.2364H51.4794V70.7614H14ZM14 25.525V17H51.4794V25.525H14Z" fill="white"/>
<path d="M78.0573 17.4358H88.6353V22.7248H88.5321L88.6353 22.7893V27.8203L88.6353 22.7248H93.9243V28.0138L93.8597 28.0137L93.9243 28.1705V28.0138H98.1575L99.2132 26.8337V22.7248H104.502V17.4358H115.08V22.7248H114.822L114.951 22.7893L115.08 22.9029V22.7248H120.369V27.5623L120.882 28.0138H125.658V43.8807H120.461L120.369 43.9746V49.1697H115.318L115.08 49.4147V54.4587H110.176L109.791 54.8548V59.7476H105.034L104.502 60.2949V65.0366H99.8922L99.2132 65.735V70.3256H93.9243V65.7299L93.2515 65.0366H88.6353V60.2794L88.1193 59.7476H83.3463V54.8289L82.987 54.4587H78.0573V49.3785L77.8547 49.1697H72.7683V43.928L72.7225 43.8807H67.4794V28.0138H72.7683V22.7248H78.0573V22.7332L78.067 22.7248H78.0573V17.4358Z" fill="#FF0F66"/>
<path d="M192.859 57.1641L184.363 66.2786C184.179 66.4766 183.956 66.6346 183.709 66.7428C183.461 66.8509 183.194 66.9068 182.924 66.9071H142.645C142.453 66.907 142.265 66.8508 142.105 66.7455C141.944 66.6402 141.818 66.4903 141.741 66.3141C141.664 66.138 141.64 65.9432 141.672 65.7538C141.704 65.5643 141.791 65.3882 141.921 65.2473L150.409 56.1327C150.592 55.9347 150.815 55.7767 151.062 55.6686C151.31 55.5605 151.577 55.5045 151.847 55.5043H192.126C192.32 55.5003 192.51 55.5537 192.674 55.6579C192.837 55.7621 192.967 55.9123 193.045 56.0897C193.123 56.2672 193.148 56.4638 193.115 56.655C193.082 56.8462 192.993 57.0233 192.859 57.1641ZM184.363 38.8054C184.178 38.6083 183.955 38.4509 183.708 38.3429C183.461 38.2348 183.194 38.1784 182.924 38.177H142.645C142.453 38.1771 142.265 38.2332 142.105 38.3385C141.944 38.4438 141.818 38.5938 141.741 38.7699C141.664 38.946 141.64 39.1408 141.672 39.3303C141.704 39.5198 141.791 39.6958 141.921 39.8368L150.409 48.9561C150.593 49.1532 150.816 49.3106 151.063 49.4186C151.311 49.5267 151.577 49.5832 151.847 49.5846H192.126C192.317 49.5835 192.505 49.5267 192.665 49.421C192.825 49.3154 192.95 49.1654 193.027 48.9894C193.103 48.8135 193.126 48.6191 193.094 48.4301C193.062 48.241 192.975 48.0654 192.845 47.9248L184.363 38.8054ZM142.645 32.2573H182.924C183.194 32.2571 183.461 32.2011 183.709 32.093C183.956 31.9849 184.179 31.8269 184.363 31.6289L192.859 22.5143C192.959 22.4089 193.034 22.2829 193.079 22.1451C193.125 22.0074 193.139 21.8613 193.121 21.7174C193.103 21.5735 193.054 21.4353 192.977 21.3126C192.899 21.19 192.796 21.086 192.674 21.008C192.51 20.9038 192.32 20.8504 192.126 20.8545H151.847C151.577 20.8547 151.31 20.9107 151.062 21.0188C150.815 21.1269 150.592 21.2849 150.409 21.4829L141.921 30.5975C141.791 30.7385 141.704 30.9145 141.672 31.104C141.64 31.2934 141.664 31.4882 141.741 31.6643C141.818 31.8405 141.944 31.9904 142.105 32.0957C142.265 32.201 142.453 32.2572 142.645 32.2573Z" fill="white"/>
</svg>
