<svg width="352" height="112" viewBox="0 0 352 112" fill="none" xmlns="http://www.w3.org/2000/svg">
<rect x="2" y="2" width="348" height="107.202" rx="16" fill="#181728"/>
<rect x="1" y="1" width="350" height="109.202" rx="17" stroke="white" stroke-opacity="0.52" stroke-width="2"/>
<path d="M174.247 18.308H177.481L171.651 27.79V32.916H168.857V27.79L163.049 18.308H166.239L170.243 24.864H170.287L174.247 18.308Z" fill="white" fill-opacity="0.66"/>
<path d="M161.584 28.538C161.584 31.156 159.912 32.916 157.404 32.916H147.68V18.308H156.854C159.34 18.308 161.012 20.046 161.012 22.686C161.012 23.83 160.528 24.798 159.758 25.436C160.88 26.03 161.584 27.13 161.584 28.538ZM150.474 30.276H157.404C158.218 30.276 158.79 29.704 158.79 28.824V28.384C158.79 27.504 158.218 26.91 157.404 26.91H150.474V30.276ZM150.474 24.292H156.854C157.69 24.292 158.218 23.698 158.218 22.818V22.4C158.218 21.52 157.69 20.926 156.854 20.926H150.474V24.292Z" fill="white" fill-opacity="0.66"/>
<path d="M123.145 32.916V18.308H130.097C134.255 18.308 137.313 21.366 137.313 25.612C137.313 29.814 134.255 32.916 130.097 32.916H123.145ZM125.939 30.276H130.097C132.583 30.276 134.387 28.34 134.387 25.612C134.387 22.906 132.583 20.926 130.097 20.926H125.939V30.276Z" fill="white" fill-opacity="0.66"/>
<path d="M108.665 20.926V24.292H116.717V26.91H108.665V30.276H119.467V32.916H105.871V18.308H119.467V20.926H108.665Z" fill="white" fill-opacity="0.66"/>
<path d="M90.9835 26.91V32.916H88.1895V18.308H98.1995C100.685 18.308 102.357 20.046 102.357 22.686C102.357 25.018 100.883 26.668 98.7055 26.888L102.357 32.916H99.2115L95.6915 26.91H90.9835ZM90.9835 24.292H98.1995C99.0355 24.292 99.5635 23.698 99.5635 22.818V22.4C99.5635 21.52 99.0355 20.926 98.1995 20.926H90.9835V24.292Z" fill="white" fill-opacity="0.66"/>
<path d="M73.71 20.926V24.292H81.762V26.91H73.71V30.276H84.512V32.916H70.916V18.308H84.512V20.926H73.71Z" fill="white" fill-opacity="0.66"/>
<path d="M64.079 28.076L65.069 18.308H67.797L66.125 32.916H63.243L59.591 24.16L56.027 32.916H53.101L51.407 18.308H54.135L55.323 28.098L58.227 21.234H60.999L64.079 28.076Z" fill="white" fill-opacity="0.66"/>
<path d="M41.743 33.202C37.585 33.202 34.527 29.99 34.527 25.612C34.527 21.234 37.585 18 41.743 18C45.901 18 48.959 21.234 48.959 25.612C48.959 29.99 45.901 33.202 41.743 33.202ZM37.453 25.612C37.453 28.384 39.257 30.43 41.743 30.43C44.251 30.43 46.077 28.384 46.077 25.612C46.077 22.818 44.251 20.772 41.743 20.772C39.257 20.772 37.453 22.818 37.453 25.612Z" fill="white" fill-opacity="0.66"/>
<path d="M28.01 18.308C30.496 18.308 32.168 20.046 32.168 22.686C32.168 25.194 30.496 26.91 28.01 26.91H20.794V32.916H18V18.308H28.01ZM20.794 24.292H28.01C28.846 24.292 29.374 23.698 29.374 22.818V22.4C29.374 21.52 28.846 20.926 28.01 20.926H20.794V24.292Z" fill="white" fill-opacity="0.66"/>
<g clip-path="url(#clip0_1_52)">
<mask id="mask0_1_52" style="mask-type:luminance" maskUnits="userSpaceOnUse" x="18" y="47" width="314" height="47">
<path d="M18 47.202L332 47.202V93.202H18V47.202Z" fill="white"/>
</mask>
<g mask="url(#mask0_1_52)">
<path d="M69.9018 83.4701L61.2887 92.5743C61.1024 92.7721 60.8768 92.9299 60.6259 93.0379C60.375 93.1459 60.1042 93.2018 59.8305 93.202H19.0007C18.806 93.2019 18.6155 93.1458 18.4526 93.0406C18.2897 92.9354 18.1615 92.7857 18.0836 92.6098C18.0057 92.4338 17.9815 92.2393 18.0141 92.05C18.0466 91.8607 18.1344 91.6849 18.2668 91.5441L26.8702 82.4399C27.0565 82.2422 27.2821 82.0844 27.533 81.9764C27.7839 81.8684 28.0546 81.8125 28.3284 81.8122H69.1581C69.3546 81.8082 69.548 81.8616 69.7138 81.9657C69.8796 82.0697 70.0105 82.2198 70.09 82.3971C70.1695 82.5743 70.194 82.7707 70.1605 82.9617C70.1271 83.1526 70.037 83.3295 69.9018 83.4701ZM61.2887 65.1324C61.1016 64.9356 60.8759 64.7784 60.6252 64.6705C60.3744 64.5625 60.104 64.5061 59.8305 64.5047H19.0007C18.806 64.5048 18.6155 64.5609 18.4526 64.6661C18.2897 64.7713 18.1615 64.921 18.0836 65.097C18.0057 65.2729 17.9815 65.4675 18.0141 65.6567C18.0466 65.846 18.1344 66.0218 18.2668 66.1626L26.8702 75.2716C27.0572 75.4685 27.283 75.6256 27.5337 75.7336C27.7844 75.8415 28.0548 75.8979 28.3284 75.8993H69.1581C69.3524 75.8983 69.5422 75.8415 69.7044 75.736C69.8666 75.6304 69.9941 75.4806 70.0714 75.3049C70.1487 75.1291 70.1724 74.935 70.1397 74.7461C70.107 74.5573 70.0193 74.3819 69.8872 74.2414L61.2887 65.1324ZM19.0007 58.5918H59.8305C60.1042 58.5916 60.375 58.5357 60.6259 58.4277C60.8768 58.3197 61.1024 58.1619 61.2887 57.9641L69.9018 48.8599C70.0027 48.7547 70.0789 48.6288 70.1248 48.4912C70.1706 48.3536 70.1851 48.2077 70.1671 48.064C70.1491 47.9202 70.0992 47.7822 70.0208 47.6597C69.9424 47.5372 69.8375 47.4333 69.7137 47.3554C69.5479 47.2514 69.3546 47.198 69.1581 47.202H28.3284C28.0546 47.2023 27.7839 47.2582 27.533 47.3662C27.2821 47.4742 27.0565 47.632 26.8702 47.8297L18.2668 56.9339C18.1344 57.0747 18.0466 57.2505 18.0141 57.4398C17.9815 57.6291 18.0057 57.8236 18.0836 57.9995C18.1615 58.1755 18.2897 58.3252 18.4526 58.4304C18.6155 58.5356 18.806 58.5917 19.0007 58.5918Z" fill="url(#paint0_linear_1_52)"/>
<path d="M120.531 66.6562H98.6869V59.5645H126.208V52.4728L98.614 52.4728C97.6712 52.4677 96.7365 52.6456 95.8635 52.9966C94.9904 53.3476 94.1961 53.8647 93.5258 54.5183C92.8555 55.172 92.3224 55.9494 91.957 56.8062C91.5915 57.663 91.4008 58.5824 91.3959 59.5118V66.6993C91.3996 67.6295 91.5893 68.55 91.9542 69.4079C92.3191 70.2658 92.852 71.0443 93.5224 71.699C94.1928 72.3537 94.9876 72.8716 95.8613 73.2232C96.7349 73.5747 97.6703 73.753 98.614 73.7478H120.487V80.8395H91.916V87.9312H120.531C121.951 87.939 123.341 87.5314 124.526 86.76C125.711 85.9886 126.637 84.8881 127.187 83.5976C127.553 82.7409 127.744 81.8216 127.749 80.8922V73.7047C127.745 72.7745 127.555 71.8541 127.19 70.9962C126.826 70.1384 126.293 69.3598 125.622 68.7052C124.952 68.0505 124.157 67.5326 123.283 67.181C122.41 66.8294 121.474 66.6511 120.531 66.6562ZM162.848 52.4728H140.921C139.499 52.4617 138.105 52.8672 136.917 53.6379C135.729 54.4087 134.8 55.51 134.247 56.8021C133.88 57.66 133.689 58.5808 133.684 59.5118V80.8922C133.689 81.8232 133.88 82.7442 134.247 83.6024C134.799 84.8945 135.729 85.9958 136.917 86.7665C138.105 87.5372 139.499 87.9426 140.921 87.9312H162.848C163.791 87.9363 164.725 87.7584 165.598 87.4074C166.471 87.0564 167.266 86.5394 167.936 85.8857C168.606 85.232 169.139 84.4546 169.505 83.5978C169.87 82.741 170.061 81.8217 170.066 80.8922V59.5118C170.061 58.5824 169.87 57.663 169.505 56.8063C169.139 55.9496 168.606 55.1723 167.936 54.5189C167.265 53.865 166.471 53.3478 165.598 52.9967C164.725 52.6456 163.791 52.4676 162.848 52.4728ZM162.794 80.8395H140.975V59.5645H162.785L162.794 80.8395ZM239.647 52.4728H218.26C217.317 52.4677 216.382 52.6456 215.509 52.9966C214.636 53.3476 213.842 53.8647 213.171 54.5183C212.501 55.172 211.968 55.9494 211.603 56.8062C211.237 57.663 211.046 58.5824 211.042 59.5118V87.9312H218.333V76.2826H239.622V87.9312H246.913V59.5118C246.909 58.5783 246.716 57.6549 246.348 56.7949C245.979 55.9349 245.442 55.1552 244.767 54.5009C244.091 53.8466 243.291 53.3306 242.412 52.9825C241.533 52.6344 240.594 52.4612 239.647 52.4728ZM239.593 69.191H218.303V59.5645L239.593 59.5645V69.191ZM324.781 52.4728H303.394C302.452 52.4677 301.517 52.6456 300.644 52.9966C299.771 53.3476 298.977 53.8647 298.306 54.5183C297.636 55.172 297.103 55.9494 296.737 56.8062C296.372 57.663 296.181 58.5824 296.176 59.5118V87.9312H303.467V76.2826H324.709V87.9312H332V59.5118C331.995 58.5824 331.804 57.663 331.438 56.8063C331.073 55.9496 330.54 55.1723 329.869 54.5189C328.516 53.1988 326.685 52.4628 324.781 52.4728ZM324.709 69.191H303.419V59.5645H324.709V69.191ZM282.421 80.8395H279.504L269.078 55.4437C268.721 54.5674 268.106 53.8164 267.313 53.287C266.519 52.7577 265.584 52.4742 264.626 52.4728H258.156C257.209 52.4678 256.282 52.7399 255.492 53.2547C254.702 53.7695 254.084 54.5038 253.718 55.3646C253.474 55.936 253.347 56.549 253.344 57.1687V87.9312H260.635V59.5645H263.551L273.973 84.9603C274.336 85.835 274.955 86.583 275.752 87.1088C276.548 87.6346 277.486 87.9143 278.445 87.912H284.914C285.543 87.9153 286.166 87.7964 286.748 87.5621C287.331 87.3278 287.86 86.9826 288.307 86.5464C289.209 85.6657 289.72 84.4678 289.726 83.2162V52.4728H282.421V80.8395ZM183.797 52.4728H176.506V80.8922C176.511 81.8236 176.703 82.7449 177.07 83.6032C177.437 84.4615 177.972 85.2399 178.645 85.8938C179.318 86.5476 180.115 87.0642 180.991 87.4138C181.867 87.7634 182.804 87.9392 183.749 87.9312H205.622V80.8395H183.797V52.4728Z" fill="white"/>
</g>
</g>
<defs>
<linearGradient id="paint0_linear_1_52" x1="22.4032" y1="94.2993" x2="64.532" y2="46.1199" gradientUnits="userSpaceOnUse">
<stop offset="0.08" stop-color="#9945FF"/>
<stop offset="0.3" stop-color="#8752F3"/>
<stop offset="0.5" stop-color="#5497D5"/>
<stop offset="0.6" stop-color="#43B4CA"/>
<stop offset="0.72" stop-color="#28E0B9"/>
<stop offset="0.97" stop-color="#19FB9B"/>
</linearGradient>
<clipPath id="clip0_1_52">
<rect width="314" height="46" fill="white" transform="translate(18 47.202)"/>
</clipPath>
</defs>
</svg>
