<svg width="24" height="24" viewBox="0 0 24 24" fill="none" xmlns="http://www.w3.org/2000/svg">
<rect width="24" height="24" fill="#110C17"/>
<path d="M15.4009 9.59249L16.3556 10.7159C16.4657 10.8416 16.5614 10.946 16.6014 11.0046C16.8873 11.289 17.0473 11.672 17.0473 12.0722C17.0202 12.5438 16.7129 12.8654 16.4285 13.2098L15.7596 13.9945L15.4109 14.4018C15.398 14.4161 15.3894 14.4332 15.388 14.4518C15.3866 14.4704 15.388 14.489 15.3966 14.5061C15.4037 14.5233 15.418 14.5376 15.4337 14.5476C15.4509 14.5576 15.4695 14.5619 15.4881 14.5605H18.9725C19.5042 14.5605 20.1744 15.0078 20.1359 15.6867C20.1359 15.9954 20.0101 16.2912 19.7886 16.5085C19.567 16.7271 19.2669 16.8501 18.9539 16.8515H13.4972C13.1384 16.8515 12.1723 16.8901 11.9022 16.0668C11.845 15.8953 11.8364 15.7095 11.8793 15.5337C11.9579 15.2736 12.0822 15.0278 12.2466 14.8106C12.521 14.4032 12.8183 13.9973 13.1113 13.6029C13.4886 13.0869 13.8773 12.5867 14.259 12.0607C14.2718 12.0436 14.2804 12.0221 14.2804 12.0007C14.2804 11.9793 14.2732 11.9578 14.259 11.9407L12.8726 10.3142C12.864 10.3014 12.8512 10.2928 12.8383 10.2871C12.8254 10.2799 12.8111 10.2771 12.7954 10.2771C12.7797 10.2771 12.7654 10.2799 12.7525 10.2871C12.7397 10.2942 12.7268 10.3042 12.7182 10.3142C12.3466 10.8088 10.7216 12.9969 10.3743 13.44C10.027 13.883 9.17379 13.9073 8.70072 13.44L6.53117 11.2947C6.5183 11.2818 6.49972 11.2718 6.47971 11.2675C6.46113 11.2647 6.44112 11.2647 6.42254 11.2732C6.40539 11.2804 6.38967 11.2932 6.37824 11.3104C6.3668 11.3276 6.36109 11.3461 6.36109 11.3647V15.4894C6.3668 15.7824 6.27819 16.0697 6.10954 16.3113C5.9409 16.5514 5.69936 16.7357 5.42066 16.8343C5.24201 16.8958 5.05192 16.9144 4.8647 16.8872C4.67747 16.86 4.49882 16.7915 4.34446 16.6828C4.19011 16.5756 4.06434 16.4327 3.97716 16.2669C3.8914 16.1011 3.84424 15.9182 3.84424 15.731V8.31048C3.8571 8.04322 3.95429 7.78596 4.12294 7.5773C4.29301 7.3672 4.52454 7.21571 4.78609 7.14424C5.01048 7.08565 5.2463 7.08565 5.46926 7.1471C5.69364 7.20713 5.89659 7.32433 6.05952 7.48726L9.39388 10.7773C9.4039 10.7873 9.41674 10.7945 9.42962 10.8002C9.44249 10.8059 9.45676 10.8073 9.47106 10.8059C9.48536 10.8059 9.4982 10.8002 9.51108 10.793C9.52395 10.7859 9.53394 10.7759 9.54253 10.7659L11.9122 7.53156C12.0222 7.40007 12.1594 7.29431 12.3138 7.22142C12.4696 7.14853 12.6382 7.10994 12.8111 7.10708H18.9725C19.1411 7.10708 19.3069 7.14424 19.4613 7.21285C19.6142 7.28145 19.7514 7.38292 19.8629 7.50727C19.9744 7.63161 20.0573 7.78025 20.1059 7.93889C20.1544 8.09896 20.1673 8.26618 20.1459 8.43054C20.103 8.71638 19.9558 8.9765 19.7314 9.16373C19.507 9.35095 19.224 9.45243 18.9296 9.44814H15.4795C15.4623 9.44814 15.4452 9.45386 15.4309 9.46243C15.4166 9.47101 15.4037 9.4853 15.3966 9.49959C15.3894 9.51531 15.3837 9.53104 15.3852 9.54819C15.3852 9.56534 15.3923 9.58106 15.4023 9.59535L15.4009 9.59249Z" fill="url(#paint0_linear_480_1611)"/>
<defs>
<linearGradient id="paint0_linear_480_1611" x1="1.1373" y1="5.72932" x2="19.4298" y2="16.2898" gradientUnits="userSpaceOnUse">
<stop offset="0.23" stop-color="#FF0075"/>
<stop offset="0.27" stop-color="#FF0569"/>
<stop offset="0.34" stop-color="#FF1349"/>
<stop offset="0.41" stop-color="#FF2228"/>
<stop offset="0.51" stop-color="#FF4A15"/>
<stop offset="0.61" stop-color="#FF6C05"/>
<stop offset="0.66" stop-color="#FF7900"/>
<stop offset="0.7" stop-color="#FF880C"/>
<stop offset="0.82" stop-color="#FFAC2B"/>
<stop offset="0.92" stop-color="#FFC23E"/>
<stop offset="0.98" stop-color="#FFCB45"/>
</linearGradient>
</defs>
</svg>
